<svg width="18" height="19" viewBox="0 0 18 19" fill="none" xmlns="http://www.w3.org/2000/svg">
<path d="M14.25 16.25V4.25C14.25 3.42157 13.5784 2.75 12.75 2.75H5.25C4.42157 2.75 3.75 3.42157 3.75 4.25V16.25M14.25 16.25L15.75 16.25M14.25 16.25H10.5M3.75 16.25L2.25 16.25M3.75 16.25H7.5M6.75 5.74998H7.5M6.75 8.74998H7.5M10.5 5.74998H11.25M10.5 8.74998H11.25M7.5 16.25V12.5C7.5 12.0858 7.83579 11.75 8.25 11.75H9.75C10.1642 11.75 10.5 12.0858 10.5 12.5V16.25M7.5 16.25H10.5" stroke="#A99688" stroke-linecap="round" stroke-linejoin="round"/>
</svg>
