<svg width="30" height="32" viewBox="0 0 30 32" fill="none" xmlns="http://www.w3.org/2000/svg">
<path d="M19.5118 11.7314C19.336 11.8465 19.1661 11.9494 19.1427 11.9554C19.1075 11.9736 19.963 13.5842 20.0567 13.681C20.0802 13.7053 20.6251 12.9121 20.6251 12.8515C20.6251 12.7668 19.9161 11.5195 19.8692 11.5256C19.8516 11.5256 19.6876 11.6224 19.5118 11.7314Z" fill="#7D4E2B"/>
<path d="M17.0098 14.4016C16.8047 14.5166 16.6406 14.6256 16.6406 14.6438C16.6406 14.6801 16.9746 15.2795 17.3262 15.8971L17.5312 16.2422L17.877 15.9576C18.0703 15.8063 18.2168 15.6488 18.2109 15.6125C18.1816 15.4975 17.4375 14.1836 17.4023 14.1836C17.3848 14.1836 17.209 14.2805 17.0098 14.4016Z" fill="#7D4E2B"/>
<path d="M14.2266 16.5631C14.0391 16.6721 13.8867 16.775 13.8867 16.7992C13.8867 16.8537 14.5957 18.1373 14.6836 18.2342C14.748 18.3068 14.8125 18.2826 15.1113 18.0828C15.3105 17.9557 15.4688 17.8285 15.4688 17.8043C15.4688 17.7014 14.6836 16.3633 14.625 16.3633C14.5898 16.3693 14.4082 16.4541 14.2266 16.5631Z" fill="#7D4E2B"/>
<path d="M11.2676 18.3371C11.0625 18.4522 10.8984 18.5611 10.8984 18.5732C10.8984 18.6096 11.6602 19.9598 11.7129 20.0082C11.7598 20.0627 12.5508 19.6449 12.5156 19.5844C11.959 18.5672 11.7012 18.1191 11.6719 18.1191C11.6484 18.1191 11.4668 18.216 11.2676 18.3371Z" fill="#7D4E2B"/>
<path d="M8.12695 19.6873C7.96875 19.7842 7.8164 19.8871 7.78125 19.9234C7.74023 19.9658 7.82812 20.1777 8.05078 20.5834C8.55469 21.5097 8.47265 21.4431 8.95898 21.2676C9.19336 21.1888 9.36914 21.092 9.36328 21.0556C9.31641 20.8922 8.51953 19.5117 8.4668 19.5178C8.4375 19.5178 8.2793 19.5965 8.12695 19.6873Z" fill="#7D4E2B"/>
<path d="M4.58789 20.6379L4.23047 20.8498L4.59375 21.4977L4.96289 22.1455L5.44922 22.1334C5.71875 22.1213 5.94727 22.1031 5.95898 22.091C6 22.0486 5.07422 20.4199 5.00977 20.426C4.98047 20.426 4.78711 20.5168 4.58789 20.6379Z" fill="#7D4E2B"/>
<path d="M9.78516 25.4393V26.2143L10.2012 26.408C10.4355 26.5109 10.6465 26.5957 10.6699 26.5957C10.6992 26.5957 10.7227 26.1598 10.7227 25.627V24.6582H10.2539H9.78516V25.4393Z" fill="#7D4E2B"/>
<path d="M26.9531 25.633V26.6078L27.0879 26.5715C27.1641 26.5533 27.375 26.4685 27.5566 26.3838L27.8906 26.2324V25.4453V24.6582H27.4219H26.9531V25.633Z" fill="#7D4E2B"/>
<path d="M13.2422 26.5291V27.3768L13.582 27.4434C13.7637 27.4797 13.9746 27.5221 14.0508 27.5402L14.1797 27.5645V26.626V25.6875H13.7109H13.2422V26.5291Z" fill="#7D4E2B"/>
<path d="M23.5547 26.626V27.5645L23.6895 27.5402C23.7598 27.5221 23.9707 27.4797 24.1582 27.4434L24.4922 27.3768V26.5291V25.6875H24.0234H23.5547V26.626Z" fill="#7D4E2B"/>
<path d="M16.6992 26.9892V27.8672H16.957C17.0977 27.8672 17.2969 27.8853 17.3965 27.9035L17.5781 27.9398V27.0256V26.1113H17.1387H16.6992V26.9892Z" fill="#7D4E2B"/>
<path d="M20.0977 27.0256V27.9459L20.3203 27.9035C20.4375 27.8853 20.6484 27.8672 20.7891 27.8672H21.0352V26.9893V26.1113H20.5664H20.0977V27.0256Z" fill="#7D4E2B"/>
<path d="M19.6699 7.14199C19.8516 9.69102 15.4863 14.0141 9.93164 16.8174C5.69531 18.9486 1.9043 19.5723 0.568359 18.3613C0.451172 18.2584 0.351562 18.1857 0.351562 18.2039C0.351562 18.325 2.11523 21.3826 2.28516 21.5582C2.73047 22.0062 3.52148 22.2545 4.43555 22.2242L4.98047 22.2061L4.78711 21.873C4.68164 21.6914 4.50586 21.3826 4.40625 21.1949L4.21289 20.8498L4.61133 20.6076C4.82227 20.4744 5.02148 20.3775 5.04492 20.3896C5.06836 20.4078 5.29102 20.7953 5.54297 21.2494C5.79492 21.7096 6.00586 22.0971 6.01172 22.1092C6.02344 22.1213 7.01367 21.9154 7.59961 21.7701L7.72852 21.7398L7.74609 23.0295C7.76367 24.525 7.79297 24.6219 8.34375 25.2092C8.60742 25.4877 9.62109 26.2324 9.73828 26.2324C9.76172 26.2324 9.78516 25.8752 9.78516 25.4453V24.6582H10.2832H10.7812V25.6875V26.7107L11.4434 26.9227C12.1816 27.1588 13.0078 27.3828 13.1484 27.3828C13.2305 27.3828 13.2422 27.2678 13.2422 26.5049V25.627H13.7109H14.1797V26.6199V27.6068L14.4902 27.6492C15.293 27.7643 16.2246 27.8672 16.4238 27.8672H16.6406V26.9893V26.1113H17.1387H17.6367V27.0135V27.9096L17.8594 27.952C18.1406 28.0004 19.5938 28.0004 19.8809 27.952L20.0977 27.9096V27.0135V26.1113H20.5664H21.0352V26.9953V27.8854L21.6094 27.843C21.9199 27.8187 22.4824 27.7521 22.8516 27.6977L23.5254 27.5947L23.543 26.6078L23.5547 25.627H24.0234H24.4922V26.5049C24.4922 27.298 24.5039 27.3828 24.5977 27.3828C24.7266 27.3828 25.6465 27.1285 26.3848 26.8924L26.9531 26.7047V25.6814V24.6582H27.4512H27.9492V25.4514V26.2445L28.2891 26.0508C29.0859 25.5846 29.6836 24.9791 29.8828 24.4402C29.9941 24.1314 30 23.974 30 22.1879L29.9941 20.2686L29.8887 20.5834C29.6426 21.3221 28.9336 21.9639 27.6914 22.5693C26.0156 23.3867 23.7656 23.9074 20.9883 24.1193C19.8984 24.198 16.8398 24.1617 15.9082 24.0527C13.2656 23.75 11.3555 23.2535 9.81445 22.4664C9.16992 22.1334 8.32617 21.5219 8.43164 21.4553C8.47266 21.425 8.41992 21.2797 8.27344 21.0254C8.15039 20.8074 7.96875 20.4805 7.86328 20.2867L7.67578 19.9477L8.08008 19.7055C8.37891 19.5299 8.50195 19.4814 8.54297 19.5299C8.57227 19.5723 8.77734 19.9295 8.99414 20.3291C9.2168 20.7287 9.4043 21.0678 9.41016 21.0799C9.43359 21.1102 10.6348 20.6076 11.2324 20.317L11.7129 20.0869L11.2969 19.3422C10.8281 18.5006 10.8281 18.5672 11.373 18.2523L11.6953 18.0646L12.0879 18.773C12.3047 19.1605 12.5039 19.5178 12.5332 19.5602C12.5684 19.6268 12.6562 19.6025 12.9258 19.4451C13.5293 19.1 14.6484 18.4098 14.6719 18.3674C14.6895 18.3432 14.5078 17.9799 14.2676 17.5561L13.834 16.7871L14.2441 16.5389C14.4668 16.3996 14.6602 16.2967 14.6719 16.3088C14.6836 16.3209 14.8711 16.6539 15.0879 17.0414C15.3047 17.435 15.5098 17.7559 15.5449 17.7559C15.6914 17.7559 17.502 16.327 17.4727 16.2301C17.4551 16.1635 16.8047 14.9828 16.6641 14.7588C16.5879 14.6377 16.6113 14.6195 16.9629 14.4076C17.168 14.2865 17.3672 14.1836 17.3965 14.1836C17.4258 14.1836 17.6309 14.5105 17.8535 14.9102C18.0703 15.3037 18.2637 15.6307 18.2812 15.6367C18.3223 15.6367 19.7285 14.1715 19.9395 13.9111C20.0801 13.7355 20.0801 13.7234 19.9863 13.5781C19.8398 13.3662 19.1016 12.0342 19.1016 11.9918C19.1016 11.9252 19.8633 11.5135 19.916 11.5437C19.9453 11.5619 20.1211 11.8525 20.3027 12.1855C20.4844 12.5186 20.6602 12.8031 20.6836 12.8213C20.7539 12.8697 21.2168 11.9676 21.3691 11.4771C21.4863 11.0896 21.5098 10.908 21.4922 10.4902L21.4746 9.97559L20.6309 8.46191C19.5469 6.51836 19.6406 6.64551 19.6699 7.14199Z" fill="#DE9800"/>
<path d="M15.9668 7.34179C13.9453 7.63242 10.3594 9.27929 7.32422 11.3016C4.27734 13.3299 2.16797 15.4369 2.16797 16.4541C2.16797 16.7387 2.25 16.884 2.46094 16.999C3.9375 17.7861 10.0547 15.0918 14.2676 11.792C16.1367 10.3328 17.3145 9.03105 17.5254 8.18945C17.6133 7.85039 17.5254 7.61426 17.2559 7.45683C17.0391 7.32363 16.4414 7.26914 15.9668 7.34179Z" fill="#DE9800"/>
<path d="M16.7285 17.9981C16.3418 18.0283 15.8203 18.0647 15.5684 18.0828C15.1348 18.1131 15.082 18.1313 14.543 18.4703C13.4766 19.1484 12.9199 19.4633 11.8066 20.0203C11.1973 20.3291 10.6289 20.6076 10.5469 20.6439L10.4004 20.7045L10.6348 20.8559C12.5098 22.0547 18.2871 22.5875 22.9395 21.9941C25.834 21.6188 27.6562 20.8801 27.6562 20.0869C27.6562 19.215 25.4941 18.44 22.0898 18.0889C21.0293 17.9799 17.7656 17.9254 16.7285 17.9981Z" fill="#DE9800"/>
<path d="M16.0547 5.49511C16.0079 5.50722 15.7676 5.54961 15.5274 5.58593C11.0508 6.31855 4.78717 9.97558 1.73444 13.6447C0.334045 15.3279 -0.205017 16.6539 0.0879516 17.6771C0.158264 17.9193 0.252014 18.0586 0.498108 18.2887C1.06647 18.8275 1.76959 19.0031 3.07623 18.9486C6.7442 18.7791 12.4044 16.0242 16.2891 12.5064C19.9981 9.15215 20.7715 6.14902 18.0762 5.55566C17.7188 5.47695 16.3477 5.44062 16.0547 5.49511ZM17.2559 7.45683C17.5255 7.61425 17.6133 7.85039 17.5255 8.18945C17.3145 9.03105 16.1368 10.3328 14.2676 11.792C11.0626 14.2986 6.51569 16.6176 3.9317 17.0596C3.04108 17.217 2.39655 17.1141 2.22662 16.7932C1.40631 15.2068 8.06256 10.0846 13.6641 7.98359C14.4493 7.69297 15.4102 7.4205 15.9669 7.34179C16.4415 7.26914 17.0391 7.32363 17.2559 7.45683Z" fill="#FFD171"/>
<path d="M17.7892 16.0484C17.754 16.115 16.2306 17.3017 15.7618 17.6408C15.6505 17.7195 15.5158 17.8164 15.4689 17.8588C15.422 17.9012 15.3283 17.9799 15.2638 18.0283C15.1525 18.1191 15.1642 18.1252 15.4689 18.0949C17.3029 17.9072 20.2501 17.9072 22.09 18.0889C25.4591 18.4279 27.6564 19.215 27.6564 20.0869C27.6564 21.0678 24.9611 21.9154 20.9767 22.1818C19.6349 22.2726 16.7169 22.2182 15.5275 22.0849C13.09 21.8125 11.4376 21.3826 10.5118 20.7832C10.4005 20.7105 10.3243 20.7287 9.86731 20.9285C9.5802 21.0557 9.14075 21.2312 8.8888 21.316C8.6427 21.4068 8.44349 21.4976 8.44934 21.5219C8.50208 21.6611 9.27552 22.1818 9.93177 22.5088C11.4611 23.2777 13.3947 23.7682 16.0255 24.0648C16.9689 24.1678 20.6954 24.1678 21.6798 24.0648C25.4122 23.6652 28.1603 22.7146 29.3732 21.3947C29.8126 20.9224 29.965 20.5713 29.965 20.0566C29.9708 19.7236 29.9357 19.6025 29.7716 19.2816C29.004 17.8164 26.1681 16.6478 22.1486 16.1453C21.1583 16.0242 17.8478 15.9515 17.7892 16.0484Z" fill="#FFD171"/>
</svg>
