<svg width="18" height="19" viewBox="0 0 18 19" fill="none" xmlns="http://www.w3.org/2000/svg">
<path d="M7.875 17C3.93997 17 0.75 13.6421 0.75 9.5C0.75 5.35786 3.93997 2 7.875 2C11.81 2 15 5.35786 15 9.5C15 13.6421 11.81 17 7.875 17Z" stroke="white" stroke-linecap="round" stroke-linejoin="round"/>
<path d="M9.75 7.1C9.27266 6.71292 8.67706 6.50115 8.0625 6.5C6.50925 6.5 5.25 7.8425 5.25 9.5C5.25 11.1575 6.50925 12.5 8.0625 12.5C8.6955 12.5 9.27975 12.2765 9.75 11.9" stroke="white" stroke-linecap="round" stroke-linejoin="round"/>
<path d="M7.5 2C10.7498 2 17.25 2.75 17.25 9.5C17.25 16.25 10.7498 17 7.5 17" stroke="white"/>
</svg>
