<svg width="18" height="19" viewBox="0 0 18 19" fill="none" xmlns="http://www.w3.org/2000/svg">
<path d="M2.2912 8.75H3.75C4.57843 8.75 5.25 9.42157 5.25 10.25V11C5.25 11.8284 5.92157 12.5 6.75 12.5C7.57843 12.5 8.25 13.1716 8.25 14V16.2088M6 3.45164V4.625C6 5.66053 6.83947 6.5 7.875 6.5H8.25C9.07843 6.5 9.75 7.17157 9.75 8C9.75 8.82843 10.4216 9.5 11.25 9.5C12.0784 9.5 12.75 8.82843 12.75 8C12.75 7.17157 13.4216 6.5 14.25 6.5L15.0484 6.5M11.25 15.8659V14C11.25 13.1716 11.9216 12.5 12.75 12.5H15.0484M15.75 9.5C15.75 13.2279 12.7279 16.25 9 16.25C5.27208 16.25 2.25 13.2279 2.25 9.5C2.25 5.77208 5.27208 2.75 9 2.75C12.7279 2.75 15.75 5.77208 15.75 9.5Z" stroke="#A99688" stroke-linecap="round" stroke-linejoin="round"/>
</svg>
