<svg width="14" height="15" viewBox="0 0 14 15" fill="none" xmlns="http://www.w3.org/2000/svg">
<path d="M11.2426 10.9926C10.6185 11.6168 9.38909 12.8462 8.41369 13.8216C7.63264 14.6026 6.36745 14.6027 5.5864 13.8217C4.62886 12.8641 3.42126 11.6565 2.75736 10.9926C0.414214 8.64949 0.414214 4.85051 2.75736 2.50736C5.10051 0.164214 8.89949 0.164214 11.2426 2.50736C13.5858 4.85051 13.5858 8.64949 11.2426 10.9926Z" stroke="#333333" stroke-linecap="round" stroke-linejoin="round"/>
<path d="M9.25 6.75C9.25 7.99264 8.24264 9 7 9C5.75736 9 4.75 7.99264 4.75 6.75C4.75 5.50736 5.75736 4.5 7 4.5C8.24264 4.5 9.25 5.50736 9.25 6.75Z" stroke="#333333" stroke-linecap="round" stroke-linejoin="round"/>
</svg>
