<svg width="25" height="24" viewBox="0 0 25 24" fill="none" xmlns="http://www.w3.org/2000/svg">
<path d="M4.5 6V19C4.5 19.7956 4.81607 20.5587 5.37868 21.1213C5.94129 21.6839 6.70435 22 7.5 22H17.5C18.2956 22 19.0587 21.6839 19.6213 21.1213C20.1839 20.5587 20.5 19.7956 20.5 19V9C20.5 8.20435 20.1839 7.44129 19.6213 6.87868C19.0587 6.31607 18.2956 6 17.5 6H4.5ZM4.5 6V5" stroke="#F0F0ED"/>
<path d="M12.5 16C14.1569 16 15.5 14.6569 15.5 13C15.5 11.3431 14.1569 10 12.5 10C10.8431 10 9.5 11.3431 9.5 13C9.5 14.6569 10.8431 16 12.5 16Z" stroke="#F0F0ED"/>
<path d="M18.5 6.00005V6.75005H19.25V6.00005H18.5ZM5.57 6.75005H18.5V5.25005H5.571L5.57 6.75005ZM19.25 6.00005V4.30605H17.75V6.00005H19.25ZM16.111 1.58405L5.314 3.12605L5.526 4.61105L16.323 3.07005L16.111 1.58505V1.58405ZM5.314 3.12605C4.87975 3.18796 4.48243 3.40453 4.19509 3.73596C3.90775 4.06739 3.7497 4.4914 3.75 4.93005H5.25C5.24975 4.85262 5.27758 4.77773 5.32833 4.71926C5.37908 4.66078 5.44931 4.62169 5.526 4.61105L5.314 3.12705V3.12605ZM19.25 4.30605C19.25 3.91207 19.1652 3.52271 19.0016 3.16431C18.838 2.80592 18.5993 2.48686 18.3016 2.22875C18.004 1.97064 17.6544 1.7795 17.2764 1.66827C16.8985 1.55704 16.501 1.52832 16.111 1.58405L16.323 3.07005C16.5003 3.04469 16.6809 3.05672 16.8527 3.10725C17.0245 3.15778 17.1835 3.24463 17.3188 3.36193C17.4541 3.47923 17.5626 3.62423 17.637 3.78711C17.7114 3.95 17.7499 4.12697 17.75 4.30605H19.25ZM5.571 5.25005C5.48587 5.25005 5.40422 5.21623 5.34402 5.15603C5.28382 5.09583 5.25 5.01518 5.25 4.93005H3.75C3.74987 5.16922 3.79688 5.40508 3.88835 5.62607C3.97982 5.84706 4.11394 6.04786 4.28307 6.21698C4.45219 6.38611 4.65299 6.52023 4.87398 6.6117C5.09497 6.70317 5.33083 6.75018 5.57 6.75005L5.571 5.25005Z" fill="#F0F0ED"/>
<path d="M10.5 19H14.5" stroke="#F0F0ED" stroke-linecap="round"/>
</svg>
