<svg width="14" height="16" viewBox="0 0 14 16" fill="none" xmlns="http://www.w3.org/2000/svg">
<path d="M1 3.5V13.25C1 13.8467 1.23705 14.419 1.65901 14.841C2.08097 15.2629 2.65326 15.5 3.25 15.5H10.75C11.3467 15.5 11.919 15.2629 12.341 14.841C12.7629 14.419 13 13.8467 13 13.25V5.75C13 5.15326 12.7629 4.58097 12.341 4.15901C11.919 3.73705 11.3467 3.5 10.75 3.5H1ZM1 3.5V2.75" stroke="#333333"/>
<path d="M7 11C8.24264 11 9.25 9.99264 9.25 8.75C9.25 7.50736 8.24264 6.5 7 6.5C5.75736 6.5 4.75 7.50736 4.75 8.75C4.75 9.99264 5.75736 11 7 11Z" stroke="#333333"/>
<path d="M11.5 3.49998V4.06248H12.0625V3.49998H11.5ZM1.8025 4.06248H11.5V2.93748H1.80325L1.8025 4.06248ZM12.0625 3.49998V2.22948H10.9375V3.49998H12.0625ZM9.70825 0.187975L1.6105 1.34448L1.7695 2.45823L9.86725 1.30248L9.70825 0.188725V0.187975ZM1.6105 1.34448C1.28481 1.39091 0.986822 1.55334 0.771319 1.80191C0.555815 2.05048 0.437279 2.36849 0.4375 2.69748H1.5625C1.56231 2.63941 1.58318 2.58324 1.62125 2.53938C1.65931 2.49553 1.71198 2.46621 1.7695 2.45823L1.6105 1.34523V1.34448ZM12.0625 2.22948C12.0625 1.93399 11.9989 1.64197 11.8762 1.37317C11.7535 1.10438 11.5745 0.865087 11.3512 0.671504C11.128 0.477922 10.8658 0.334566 10.5823 0.251143C10.2988 0.16772 10.0008 0.146178 9.70825 0.187975L9.86725 1.30248C10.0002 1.28346 10.1357 1.29248 10.2645 1.33038C10.3934 1.36827 10.5126 1.43341 10.6141 1.52139C10.7156 1.60936 10.797 1.71811 10.8528 1.84027C10.9086 1.96244 10.9375 2.09517 10.9375 2.22948H12.0625ZM1.80325 2.93748C1.7394 2.93748 1.67816 2.91211 1.63301 2.86696C1.58787 2.82181 1.5625 2.76133 1.5625 2.69748H0.4375C0.437402 2.87686 0.472661 3.05375 0.541261 3.21949C0.609861 3.38524 0.710458 3.53584 0.837299 3.66268C0.964141 3.78952 1.11474 3.89011 1.28048 3.95871C1.44623 4.02732 1.62312 4.06257 1.8025 4.06248L1.80325 2.93748Z" fill="#333333"/>
<path d="M5.5 13.25H8.5" stroke="#333333" stroke-linecap="round"/>
</svg>
