<svg width="19" height="20" viewBox="0 0 19 20" fill="none" xmlns="http://www.w3.org/2000/svg">
<path d="M7.82463 2.31731C8.25103 0.560897 10.749 0.560897 11.1754 2.31731C11.4508 3.45193 12.7507 3.99038 13.7478 3.38285C15.2913 2.44239 17.0576 4.2087 16.1172 5.75218C15.5096 6.74925 16.0481 8.04918 17.1827 8.32463C18.9391 8.75103 18.9391 11.249 17.1827 11.6754C16.0481 11.9508 15.5096 13.2507 16.1172 14.2478C17.0576 15.7913 15.2913 17.5576 13.7478 16.6172C12.7507 16.0096 11.4508 16.5481 11.1754 17.6827C10.749 19.4391 8.25103 19.4391 7.82463 17.6827C7.54918 16.5481 6.24926 16.0096 5.25219 16.6172C3.7087 17.5576 1.94239 15.7913 2.88285 14.2478C3.49038 13.2507 2.95193 11.9508 1.81731 11.6754C0.0608974 11.249 0.0608965 8.75103 1.81731 8.32463C2.95193 8.04918 3.49037 6.74926 2.88285 5.75218C1.94239 4.2087 3.7087 2.44239 5.25219 3.38285C6.24926 3.99037 7.54918 3.45193 7.82463 2.31731Z" stroke="#F0F0ED" stroke-linecap="round" stroke-linejoin="round"/>
<path d="M12.5 10C12.5 11.6569 11.1569 13 9.5 13C7.84315 13 6.5 11.6569 6.5 10C6.5 8.34315 7.84315 7 9.5 7C11.1569 7 12.5 8.34315 12.5 10Z" stroke="#F0F0ED" stroke-linecap="round" stroke-linejoin="round"/>
</svg>
