<svg width="16" height="15" viewBox="0 0 16 15" fill="none" xmlns="http://www.w3.org/2000/svg">
<path d="M5.5129 8.50645C5.66462 8.20361 5.75 7.86178 5.75 7.5C5.75 7.13822 5.66462 6.79639 5.5129 6.49355M5.5129 8.50645C5.1435 9.24381 4.38086 9.75 3.5 9.75C2.25736 9.75 1.25 8.74264 1.25 7.5C1.25 6.25736 2.25736 5.25 3.5 5.25C4.38086 5.25 5.1435 5.75619 5.5129 6.49355M5.5129 8.50645L10.4871 10.9935M5.5129 6.49355L10.4871 4.00645M10.4871 4.00645C10.8565 4.74381 11.6191 5.25 12.5 5.25C13.7426 5.25 14.75 4.24264 14.75 3C14.75 1.75736 13.7426 0.75 12.5 0.75C11.2574 0.75 10.25 1.75736 10.25 3C10.25 3.36178 10.3354 3.70361 10.4871 4.00645ZM10.4871 10.9935C10.3354 11.2964 10.25 11.6382 10.25 12C10.25 13.2426 11.2574 14.25 12.5 14.25C13.7426 14.25 14.75 13.2426 14.75 12C14.75 10.7574 13.7426 9.75 12.5 9.75C11.6191 9.75 10.8565 10.2562 10.4871 10.9935Z" stroke="#7D4E2B" stroke-linecap="round" stroke-linejoin="round"/>
</svg>
