<svg width="18" height="18" viewBox="0 0 18 18" fill="none" xmlns="http://www.w3.org/2000/svg">
<path d="M2.2912 8.25H3.75C4.57843 8.25 5.25 8.92157 5.25 9.75V10.5C5.25 11.3284 5.92157 12 6.75 12C7.57843 12 8.25 12.6716 8.25 13.5V15.7088M6 2.95164V4.125C6 5.16053 6.83947 6 7.875 6H8.25C9.07843 6 9.75 6.67157 9.75 7.5C9.75 8.32843 10.4216 9 11.25 9C12.0784 9 12.75 8.32843 12.75 7.5C12.75 6.67157 13.4216 6 14.25 6L15.0484 6M11.25 15.3659V13.5C11.25 12.6716 11.9216 12 12.75 12H15.0484M15.75 9C15.75 12.7279 12.7279 15.75 9 15.75C5.27208 15.75 2.25 12.7279 2.25 9C2.25 5.27208 5.27208 2.25 9 2.25C12.7279 2.25 15.75 5.27208 15.75 9Z" stroke="#7D4E2B" stroke-linecap="round" stroke-linejoin="round"/>
</svg>
