<svg width="18" height="18" viewBox="0 0 18 18" fill="none" xmlns="http://www.w3.org/2000/svg">
<path d="M15.75 9C15.75 12.7279 12.7279 15.75 9 15.75M15.75 9C15.75 5.27208 12.7279 2.25 9 2.25M15.75 9H2.25M9 15.75C5.27208 15.75 2.25 12.7279 2.25 9M9 15.75C10.2426 15.75 11.25 12.7279 11.25 9C11.25 5.27208 10.2426 2.25 9 2.25M9 15.75C7.75736 15.75 6.75 12.7279 6.75 9C6.75 5.27208 7.75736 2.25 9 2.25M2.25 9C2.25 5.27208 5.27208 2.25 9 2.25" stroke="#333333" stroke-linecap="round" stroke-linejoin="round"/>
</svg>
